# xmcd CD database file
#
# Track frame offsets:
#	151
#	53468
#	120421
#	141433
#	155833
#	167038
#	175513
#	185406
#	197683
#	212117
#	226217
#	235139
#	253062
#	263688
#	281962
#	313912
#
# Disc length: 4552 seconds
#
# Revision: 0
# Processed by: cddbd v1.5.2PL0 Copyright (c) Steve Scherf et al.
# Submitted via: CDex 1.51
#
DISCID=e611c610
DTITLE=North Texas Wind Symphony - Altered States
DYEAR=2007
DGENRE=Wind Band
TTITLE0=Robert Sierra - Fandangos
TTITLE1=Ralph Vaughn Williams - The lark ascending
TTITLE2=Ralph Vaughn Williams - Toccata Marziale
TTITLE3=Dwayne Milburn - American Hymnsong Suite I. Prelude on 'Wondous Love'
TTITLE4=Dwayne Milburn - American Hymnsong Suite II. Ballad on 'Balm in Gilead'
TTITLE5=Dwayne Milburn - American Hymnsong Suite III. Scherzo on 'Nettleton'
TTITLE6=Dwayne Milburn - American Hymnsong Suite IV. March on 'Wilson'
TTITLE7=Frank Ticheli - Nitro
TTITLE8=Gordon Jacob - William Byrd Suite I. The Earle of Oxford's Marche
TTITLE9=Gordon Jacob - William Byrd Suite II. Pavana
TTITLE10=Gordon Jacob - William Byrd Suite III. Jhon come Kisse Me Now
TTITLE11=Gordon Jacob - William Byrd Suite IV. The Mayden's Song
TTITLE12=Gordon Jacob - William Byrd Suite V. Wolsey's Wilde
TTITLE13=Gordon Jacob - William Byrd Suite VI. The Bells
TTITLE14=Donald Grantham - The Barons I. Baron Samedi's Sarabande
TTITLE15=Donald Grantham - The Barons II. Baron Cimetiere's Mambo
EXTD=YEAR: 2007
EXTT0=
EXTT1=
EXTT2=
EXTT3=
EXTT4=
EXTT5=
EXTT6=
EXTT7=
EXTT8=
EXTT9=
EXTT10=
EXTT11=
EXTT12=
EXTT13=
EXTT14=
EXTT15=
PLAYORDER=
